<mxfile host="app.diagrams.net" modified="2023-08-20T09:14:50.667Z" agent="Mozilla/5.0 (Windows NT 10.0; Win64; x64) AppleWebKit/537.36 (KHTML, like Gecko) Chrome/115.0.0.0 Safari/537.36" etag="ilOFKQQeo0nCK7XVCYB3" version="21.6.8" type="device">
  <diagram id="C5RBs43oDa-KdzZeNtuy" name="Page-1">
    <mxGraphModel dx="1793" dy="978" grid="1" gridSize="10" guides="1" tooltips="1" connect="1" arrows="1" fold="1" page="1" pageScale="1" pageWidth="827" pageHeight="1169" math="0" shadow="0">
      <root>
        <mxCell id="WIyWlLk6GJQsqaUBKTNV-0" />
        <mxCell id="WIyWlLk6GJQsqaUBKTNV-1" parent="WIyWlLk6GJQsqaUBKTNV-0" />
        <mxCell id="PMSaIA7FyEmvQ9ItCfbO-0" value="&lt;font style=&quot;font-size: 25px;&quot;&gt;Student&lt;/font&gt;" style="rounded=0;whiteSpace=wrap;html=1;strokeWidth=2;" parent="WIyWlLk6GJQsqaUBKTNV-1" vertex="1">
          <mxGeometry x="210" y="482" width="140" height="80" as="geometry" />
        </mxCell>
        <mxCell id="PMSaIA7FyEmvQ9ItCfbO-2" value="&lt;font style=&quot;font-size: 25px;&quot;&gt;Room&lt;/font&gt;" style="rounded=0;whiteSpace=wrap;html=1;strokeWidth=2;" parent="WIyWlLk6GJQsqaUBKTNV-1" vertex="1">
          <mxGeometry x="610" y="762" width="170" height="85" as="geometry" />
        </mxCell>
        <mxCell id="PMSaIA7FyEmvQ9ItCfbO-3" value="&lt;font style=&quot;font-size: 25px;&quot;&gt;Subject&lt;/font&gt;" style="rounded=0;whiteSpace=wrap;html=1;strokeWidth=2;" parent="WIyWlLk6GJQsqaUBKTNV-1" vertex="1">
          <mxGeometry x="290" y="762" width="160" height="85" as="geometry" />
        </mxCell>
        <mxCell id="PMSaIA7FyEmvQ9ItCfbO-4" value="&lt;font style=&quot;font-size: 25px;&quot;&gt;Course&lt;/font&gt;" style="rounded=0;whiteSpace=wrap;html=1;strokeWidth=2;" parent="WIyWlLk6GJQsqaUBKTNV-1" vertex="1">
          <mxGeometry x="570" y="482" width="150" height="80" as="geometry" />
        </mxCell>
        <mxCell id="PMSaIA7FyEmvQ9ItCfbO-5" value="&lt;font style=&quot;font-size: 25px;&quot;&gt;Lecturer&lt;/font&gt;" style="rounded=0;whiteSpace=wrap;html=1;strokeWidth=2;" parent="WIyWlLk6GJQsqaUBKTNV-1" vertex="1">
          <mxGeometry x="910" y="462" width="140" height="80" as="geometry" />
        </mxCell>
        <mxCell id="PMSaIA7FyEmvQ9ItCfbO-6" value="&lt;font style=&quot;font-size: 16px;&quot;&gt;std_name&lt;/font&gt;" style="ellipse;whiteSpace=wrap;html=1;strokeWidth=2;" parent="WIyWlLk6GJQsqaUBKTNV-1" vertex="1">
          <mxGeometry x="90" y="497" width="100" height="50" as="geometry" />
        </mxCell>
        <mxCell id="PMSaIA7FyEmvQ9ItCfbO-8" value="&lt;font style=&quot;font-size: 16px;&quot;&gt;subj_name&lt;/font&gt;" style="ellipse;whiteSpace=wrap;html=1;strokeWidth=2;" parent="WIyWlLk6GJQsqaUBKTNV-1" vertex="1">
          <mxGeometry x="190" y="842" width="100" height="58" as="geometry" />
        </mxCell>
        <mxCell id="PMSaIA7FyEmvQ9ItCfbO-9" value="&lt;font style=&quot;font-size: 16px;&quot;&gt;subj_code&lt;/font&gt;" style="ellipse;whiteSpace=wrap;html=1;strokeWidth=2;" parent="WIyWlLk6GJQsqaUBKTNV-1" vertex="1">
          <mxGeometry x="205" y="710" width="105" height="52" as="geometry" />
        </mxCell>
        <mxCell id="PMSaIA7FyEmvQ9ItCfbO-13" value="&lt;font style=&quot;font-size: 16px;&quot;&gt;capacity&lt;/font&gt;" style="ellipse;whiteSpace=wrap;html=1;strokeWidth=2;" parent="WIyWlLk6GJQsqaUBKTNV-1" vertex="1">
          <mxGeometry x="780" y="860" width="90" height="50" as="geometry" />
        </mxCell>
        <mxCell id="PMSaIA7FyEmvQ9ItCfbO-16" value="&lt;font style=&quot;font-size: 16px;&quot;&gt;std_code&lt;/font&gt;" style="ellipse;whiteSpace=wrap;html=1;strokeWidth=2;" parent="WIyWlLk6GJQsqaUBKTNV-1" vertex="1">
          <mxGeometry x="227.5" y="592" width="105" height="48" as="geometry" />
        </mxCell>
        <mxCell id="PMSaIA7FyEmvQ9ItCfbO-17" value="&lt;font style=&quot;font-size: 16px;&quot;&gt;time&lt;/font&gt;" style="ellipse;whiteSpace=wrap;html=1;strokeWidth=2;" parent="WIyWlLk6GJQsqaUBKTNV-1" vertex="1">
          <mxGeometry x="695" y="412" width="90" height="40" as="geometry" />
        </mxCell>
        <mxCell id="PMSaIA7FyEmvQ9ItCfbO-18" value="&lt;font style=&quot;font-size: 16px;&quot;&gt;Term&lt;/font&gt;" style="ellipse;whiteSpace=wrap;html=1;strokeWidth=2;" parent="WIyWlLk6GJQsqaUBKTNV-1" vertex="1">
          <mxGeometry x="600" y="382" width="90" height="40" as="geometry" />
        </mxCell>
        <mxCell id="PMSaIA7FyEmvQ9ItCfbO-19" value="&lt;font style=&quot;font-size: 16px;&quot;&gt;lect_name&lt;/font&gt;" style="ellipse;whiteSpace=wrap;html=1;strokeWidth=2;" parent="WIyWlLk6GJQsqaUBKTNV-1" vertex="1">
          <mxGeometry x="935" y="572" width="90" height="40" as="geometry" />
        </mxCell>
        <mxCell id="PMSaIA7FyEmvQ9ItCfbO-20" value="&lt;font style=&quot;font-size: 16px;&quot;&gt;lect_id&lt;/font&gt;" style="ellipse;whiteSpace=wrap;html=1;strokeWidth=2;" parent="WIyWlLk6GJQsqaUBKTNV-1" vertex="1">
          <mxGeometry x="935" y="382" width="90" height="40" as="geometry" />
        </mxCell>
        <mxCell id="PMSaIA7FyEmvQ9ItCfbO-21" value="&lt;font style=&quot;font-size: 16px;&quot;&gt;day&lt;/font&gt;" style="ellipse;whiteSpace=wrap;html=1;strokeWidth=2;" parent="WIyWlLk6GJQsqaUBKTNV-1" vertex="1">
          <mxGeometry x="680" y="592" width="90" height="40" as="geometry" />
        </mxCell>
        <mxCell id="PMSaIA7FyEmvQ9ItCfbO-22" value="" style="endArrow=none;html=1;rounded=0;exitX=1;exitY=0.5;exitDx=0;exitDy=0;entryX=0;entryY=0.5;entryDx=0;entryDy=0;strokeWidth=2;" parent="WIyWlLk6GJQsqaUBKTNV-1" source="PMSaIA7FyEmvQ9ItCfbO-6" target="PMSaIA7FyEmvQ9ItCfbO-0" edge="1">
          <mxGeometry width="50" height="50" relative="1" as="geometry">
            <mxPoint x="155" y="587.5" as="sourcePoint" />
            <mxPoint x="185" y="485.5" as="targetPoint" />
          </mxGeometry>
        </mxCell>
        <mxCell id="PMSaIA7FyEmvQ9ItCfbO-23" value="" style="endArrow=none;html=1;rounded=0;exitX=0.5;exitY=0;exitDx=0;exitDy=0;entryX=0.5;entryY=1;entryDx=0;entryDy=0;" parent="WIyWlLk6GJQsqaUBKTNV-1" source="PMSaIA7FyEmvQ9ItCfbO-16" target="PMSaIA7FyEmvQ9ItCfbO-0" edge="1">
          <mxGeometry width="50" height="50" relative="1" as="geometry">
            <mxPoint x="165" y="597.5" as="sourcePoint" />
            <mxPoint x="215" y="547.5" as="targetPoint" />
          </mxGeometry>
        </mxCell>
        <mxCell id="PMSaIA7FyEmvQ9ItCfbO-28" value="" style="endArrow=none;html=1;rounded=0;exitX=0.5;exitY=1;exitDx=0;exitDy=0;entryX=0;entryY=0.25;entryDx=0;entryDy=0;strokeWidth=2;" parent="WIyWlLk6GJQsqaUBKTNV-1" source="PMSaIA7FyEmvQ9ItCfbO-9" target="PMSaIA7FyEmvQ9ItCfbO-3" edge="1">
          <mxGeometry width="50" height="50" relative="1" as="geometry">
            <mxPoint x="320" y="642" as="sourcePoint" />
            <mxPoint x="370" y="592" as="targetPoint" />
          </mxGeometry>
        </mxCell>
        <mxCell id="PMSaIA7FyEmvQ9ItCfbO-29" value="" style="endArrow=none;html=1;rounded=0;exitX=0.5;exitY=0;exitDx=0;exitDy=0;entryX=0;entryY=0.75;entryDx=0;entryDy=0;strokeWidth=2;" parent="WIyWlLk6GJQsqaUBKTNV-1" source="PMSaIA7FyEmvQ9ItCfbO-8" target="PMSaIA7FyEmvQ9ItCfbO-3" edge="1">
          <mxGeometry width="50" height="50" relative="1" as="geometry">
            <mxPoint x="215" y="762" as="sourcePoint" />
            <mxPoint x="290" y="793" as="targetPoint" />
          </mxGeometry>
        </mxCell>
        <mxCell id="PMSaIA7FyEmvQ9ItCfbO-30" value="" style="endArrow=none;html=1;rounded=0;exitX=0.75;exitY=1;exitDx=0;exitDy=0;entryX=0.5;entryY=0;entryDx=0;entryDy=0;strokeWidth=2;" parent="WIyWlLk6GJQsqaUBKTNV-1" source="PMSaIA7FyEmvQ9ItCfbO-4" target="PMSaIA7FyEmvQ9ItCfbO-21" edge="1">
          <mxGeometry width="50" height="50" relative="1" as="geometry">
            <mxPoint x="320" y="642" as="sourcePoint" />
            <mxPoint x="370" y="592" as="targetPoint" />
          </mxGeometry>
        </mxCell>
        <mxCell id="PMSaIA7FyEmvQ9ItCfbO-31" value="" style="endArrow=none;html=1;rounded=0;exitX=1;exitY=0;exitDx=0;exitDy=0;entryX=0.433;entryY=0.975;entryDx=0;entryDy=0;entryPerimeter=0;strokeWidth=2;" parent="WIyWlLk6GJQsqaUBKTNV-1" source="PMSaIA7FyEmvQ9ItCfbO-4" target="PMSaIA7FyEmvQ9ItCfbO-17" edge="1">
          <mxGeometry width="50" height="50" relative="1" as="geometry">
            <mxPoint x="693" y="572" as="sourcePoint" />
            <mxPoint x="735" y="602" as="targetPoint" />
          </mxGeometry>
        </mxCell>
        <mxCell id="PMSaIA7FyEmvQ9ItCfbO-32" value="" style="endArrow=none;html=1;rounded=0;exitX=0.5;exitY=1;exitDx=0;exitDy=0;entryX=0.5;entryY=0;entryDx=0;entryDy=0;strokeWidth=2;" parent="WIyWlLk6GJQsqaUBKTNV-1" source="PMSaIA7FyEmvQ9ItCfbO-18" target="PMSaIA7FyEmvQ9ItCfbO-4" edge="1">
          <mxGeometry width="50" height="50" relative="1" as="geometry">
            <mxPoint x="730" y="492" as="sourcePoint" />
            <mxPoint x="749" y="441" as="targetPoint" />
          </mxGeometry>
        </mxCell>
        <mxCell id="PMSaIA7FyEmvQ9ItCfbO-35" value="" style="endArrow=none;html=1;rounded=0;exitX=0.5;exitY=1;exitDx=0;exitDy=0;entryX=0.5;entryY=0;entryDx=0;entryDy=0;strokeWidth=2;" parent="WIyWlLk6GJQsqaUBKTNV-1" source="PMSaIA7FyEmvQ9ItCfbO-20" target="PMSaIA7FyEmvQ9ItCfbO-5" edge="1">
          <mxGeometry width="50" height="50" relative="1" as="geometry">
            <mxPoint x="730" y="492" as="sourcePoint" />
            <mxPoint x="749" y="441" as="targetPoint" />
          </mxGeometry>
        </mxCell>
        <mxCell id="PMSaIA7FyEmvQ9ItCfbO-36" value="" style="endArrow=none;html=1;rounded=0;exitX=0.5;exitY=1;exitDx=0;exitDy=0;entryX=0.5;entryY=0;entryDx=0;entryDy=0;strokeWidth=2;" parent="WIyWlLk6GJQsqaUBKTNV-1" source="PMSaIA7FyEmvQ9ItCfbO-5" target="PMSaIA7FyEmvQ9ItCfbO-19" edge="1">
          <mxGeometry width="50" height="50" relative="1" as="geometry">
            <mxPoint x="730" y="492" as="sourcePoint" />
            <mxPoint x="749" y="441" as="targetPoint" />
          </mxGeometry>
        </mxCell>
        <mxCell id="PMSaIA7FyEmvQ9ItCfbO-38" value="" style="endArrow=none;html=1;rounded=0;exitX=0;exitY=0;exitDx=0;exitDy=0;entryX=1;entryY=1;entryDx=0;entryDy=0;strokeWidth=2;" parent="WIyWlLk6GJQsqaUBKTNV-1" source="PMSaIA7FyEmvQ9ItCfbO-13" target="PMSaIA7FyEmvQ9ItCfbO-2" edge="1">
          <mxGeometry width="50" height="50" relative="1" as="geometry">
            <mxPoint x="705" y="772" as="sourcePoint" />
            <mxPoint x="715" y="742" as="targetPoint" />
          </mxGeometry>
        </mxCell>
        <mxCell id="PMSaIA7FyEmvQ9ItCfbO-43" value="" style="endArrow=none;html=1;rounded=0;exitX=1;exitY=0.5;exitDx=0;exitDy=0;entryX=0;entryY=0.5;entryDx=0;entryDy=0;strokeWidth=2;" parent="WIyWlLk6GJQsqaUBKTNV-1" source="PMSaIA7FyEmvQ9ItCfbO-61" target="PMSaIA7FyEmvQ9ItCfbO-4" edge="1">
          <mxGeometry relative="1" as="geometry">
            <mxPoint x="240" y="532" as="sourcePoint" />
            <mxPoint x="340" y="532" as="targetPoint" />
          </mxGeometry>
        </mxCell>
        <mxCell id="PMSaIA7FyEmvQ9ItCfbO-45" value="m" style="resizable=0;html=1;whiteSpace=wrap;align=right;verticalAlign=bottom;fontSize=20;" parent="PMSaIA7FyEmvQ9ItCfbO-43" connectable="0" vertex="1">
          <mxGeometry x="1" relative="1" as="geometry">
            <mxPoint x="-25" y="-10" as="offset" />
          </mxGeometry>
        </mxCell>
        <mxCell id="PMSaIA7FyEmvQ9ItCfbO-49" value="" style="endArrow=none;html=1;rounded=0;exitX=1;exitY=0;exitDx=0;exitDy=0;entryX=0;entryY=1;entryDx=0;entryDy=0;strokeWidth=2;" parent="WIyWlLk6GJQsqaUBKTNV-1" target="PMSaIA7FyEmvQ9ItCfbO-4" edge="1">
          <mxGeometry relative="1" as="geometry">
            <mxPoint x="505" y="667" as="sourcePoint" />
            <mxPoint x="580" y="532" as="targetPoint" />
          </mxGeometry>
        </mxCell>
        <mxCell id="PMSaIA7FyEmvQ9ItCfbO-51" value="m" style="resizable=0;html=1;whiteSpace=wrap;align=right;verticalAlign=bottom;fontSize=20;" parent="PMSaIA7FyEmvQ9ItCfbO-49" connectable="0" vertex="1">
          <mxGeometry x="1" relative="1" as="geometry">
            <mxPoint x="-20" y="20" as="offset" />
          </mxGeometry>
        </mxCell>
        <mxCell id="PMSaIA7FyEmvQ9ItCfbO-62" value="" style="endArrow=none;html=1;rounded=0;exitX=1;exitY=0.5;exitDx=0;exitDy=0;entryX=0;entryY=0.5;entryDx=0;entryDy=0;strokeWidth=2;" parent="WIyWlLk6GJQsqaUBKTNV-1" source="PMSaIA7FyEmvQ9ItCfbO-0" target="PMSaIA7FyEmvQ9ItCfbO-61" edge="1">
          <mxGeometry relative="1" as="geometry">
            <mxPoint x="480" y="522" as="sourcePoint" />
            <mxPoint x="570" y="522" as="targetPoint" />
          </mxGeometry>
        </mxCell>
        <mxCell id="PMSaIA7FyEmvQ9ItCfbO-63" value="&lt;font style=&quot;font-size: 20px;&quot;&gt;n&lt;/font&gt;" style="resizable=0;html=1;whiteSpace=wrap;align=left;verticalAlign=bottom;" parent="PMSaIA7FyEmvQ9ItCfbO-62" connectable="0" vertex="1">
          <mxGeometry x="-1" relative="1" as="geometry">
            <mxPoint x="10" y="-12" as="offset" />
          </mxGeometry>
        </mxCell>
        <mxCell id="PMSaIA7FyEmvQ9ItCfbO-61" value="" style="rhombus;whiteSpace=wrap;html=1;strokeWidth=2;" parent="WIyWlLk6GJQsqaUBKTNV-1" vertex="1">
          <mxGeometry x="460" y="512" width="20" height="20" as="geometry" />
        </mxCell>
        <mxCell id="PMSaIA7FyEmvQ9ItCfbO-65" value="" style="endArrow=none;html=1;rounded=0;exitX=1;exitY=0;exitDx=0;exitDy=0;entryX=0;entryY=1;entryDx=0;entryDy=0;strokeWidth=2;" parent="WIyWlLk6GJQsqaUBKTNV-1" source="PMSaIA7FyEmvQ9ItCfbO-3" edge="1">
          <mxGeometry relative="1" as="geometry">
            <mxPoint x="440" y="762" as="sourcePoint" />
            <mxPoint x="495" y="677" as="targetPoint" />
          </mxGeometry>
        </mxCell>
        <mxCell id="PMSaIA7FyEmvQ9ItCfbO-66" value="1" style="resizable=0;html=1;whiteSpace=wrap;align=left;verticalAlign=bottom;fontSize=20;" parent="PMSaIA7FyEmvQ9ItCfbO-65" connectable="0" vertex="1">
          <mxGeometry x="-1" relative="1" as="geometry">
            <mxPoint x="-10" y="-10" as="offset" />
          </mxGeometry>
        </mxCell>
        <mxCell id="PMSaIA7FyEmvQ9ItCfbO-73" value="" style="endArrow=none;html=1;rounded=0;exitX=1;exitY=0.5;exitDx=0;exitDy=0;entryX=0;entryY=0.75;entryDx=0;entryDy=0;strokeWidth=2;" parent="WIyWlLk6GJQsqaUBKTNV-1" source="e9zDsiPC8dvcw3Dsuo-7-22" target="PMSaIA7FyEmvQ9ItCfbO-5" edge="1">
          <mxGeometry relative="1" as="geometry">
            <mxPoint x="720" y="522" as="sourcePoint" />
            <mxPoint x="827" y="512" as="targetPoint" />
          </mxGeometry>
        </mxCell>
        <mxCell id="PMSaIA7FyEmvQ9ItCfbO-77" value="" style="rhombus;whiteSpace=wrap;html=1;rotation=45;strokeWidth=2;" parent="WIyWlLk6GJQsqaUBKTNV-1" vertex="1">
          <mxGeometry x="490" y="662" width="20" height="20" as="geometry" />
        </mxCell>
        <mxCell id="YCPotoVFEUCIFsHt9eNJ-2" value="&lt;font style=&quot;font-size: 25px;&quot;&gt;Major&lt;/font&gt;" style="rounded=0;whiteSpace=wrap;html=1;strokeWidth=2;" parent="WIyWlLk6GJQsqaUBKTNV-1" vertex="1">
          <mxGeometry x="320" y="214" width="140" height="80" as="geometry" />
        </mxCell>
        <mxCell id="YCPotoVFEUCIFsHt9eNJ-3" value="&lt;font style=&quot;font-size: 16px;&quot;&gt;major_name&lt;/font&gt;" style="ellipse;whiteSpace=wrap;html=1;strokeWidth=2;" parent="WIyWlLk6GJQsqaUBKTNV-1" vertex="1">
          <mxGeometry x="332.5" y="150" width="115" height="50" as="geometry" />
        </mxCell>
        <mxCell id="YCPotoVFEUCIFsHt9eNJ-4" value="&lt;font style=&quot;font-size: 16px;&quot;&gt;major_id&lt;/font&gt;" style="ellipse;whiteSpace=wrap;html=1;strokeWidth=2;" parent="WIyWlLk6GJQsqaUBKTNV-1" vertex="1">
          <mxGeometry x="332.5" y="304" width="95" height="46" as="geometry" />
        </mxCell>
        <mxCell id="YCPotoVFEUCIFsHt9eNJ-5" value="" style="endArrow=none;html=1;rounded=0;exitX=0.5;exitY=1;exitDx=0;exitDy=0;entryX=0.5;entryY=0;entryDx=0;entryDy=0;strokeWidth=2;" parent="WIyWlLk6GJQsqaUBKTNV-1" source="YCPotoVFEUCIFsHt9eNJ-3" target="YCPotoVFEUCIFsHt9eNJ-2" edge="1">
          <mxGeometry width="50" height="50" relative="1" as="geometry">
            <mxPoint x="25" y="754" as="sourcePoint" />
            <mxPoint x="75" y="704" as="targetPoint" />
          </mxGeometry>
        </mxCell>
        <mxCell id="YCPotoVFEUCIFsHt9eNJ-6" value="" style="endArrow=none;html=1;rounded=0;exitX=0.633;exitY=0.025;exitDx=0;exitDy=0;exitPerimeter=0;entryX=0.5;entryY=1;entryDx=0;entryDy=0;strokeWidth=2;" parent="WIyWlLk6GJQsqaUBKTNV-1" source="YCPotoVFEUCIFsHt9eNJ-4" target="YCPotoVFEUCIFsHt9eNJ-2" edge="1">
          <mxGeometry width="50" height="50" relative="1" as="geometry">
            <mxPoint x="35" y="764" as="sourcePoint" />
            <mxPoint x="85" y="714" as="targetPoint" />
          </mxGeometry>
        </mxCell>
        <mxCell id="YCPotoVFEUCIFsHt9eNJ-7" value="" style="resizable=0;html=1;whiteSpace=wrap;align=left;verticalAlign=bottom;" parent="WIyWlLk6GJQsqaUBKTNV-1" connectable="0" vertex="1">
          <mxGeometry x="90" y="772" as="geometry">
            <mxPoint x="5" y="3" as="offset" />
          </mxGeometry>
        </mxCell>
        <mxCell id="YCPotoVFEUCIFsHt9eNJ-14" value="&lt;font style=&quot;font-size: 25px;&quot;&gt;RoomType&lt;/font&gt;" style="rounded=0;whiteSpace=wrap;html=1;strokeWidth=2;" parent="WIyWlLk6GJQsqaUBKTNV-1" vertex="1">
          <mxGeometry x="600" y="970" width="180" height="85" as="geometry" />
        </mxCell>
        <mxCell id="YCPotoVFEUCIFsHt9eNJ-17" value="" style="endArrow=none;html=1;rounded=0;entryX=0.5;entryY=1;entryDx=0;entryDy=0;exitX=0.5;exitY=0;exitDx=0;exitDy=0;strokeWidth=2;" parent="WIyWlLk6GJQsqaUBKTNV-1" source="e9zDsiPC8dvcw3Dsuo-7-34" target="PMSaIA7FyEmvQ9ItCfbO-2" edge="1">
          <mxGeometry width="50" height="50" relative="1" as="geometry">
            <mxPoint x="625" y="960" as="sourcePoint" />
            <mxPoint x="652.9289321881347" y="909.0710678118655" as="targetPoint" />
          </mxGeometry>
        </mxCell>
        <mxCell id="YCPotoVFEUCIFsHt9eNJ-18" value="&lt;font style=&quot;font-size: 20px;&quot;&gt;1&lt;/font&gt;" style="resizable=0;html=1;whiteSpace=wrap;align=left;verticalAlign=bottom;" parent="WIyWlLk6GJQsqaUBKTNV-1" connectable="0" vertex="1">
          <mxGeometry x="670" y="962" as="geometry" />
        </mxCell>
        <mxCell id="YCPotoVFEUCIFsHt9eNJ-19" value="&lt;font style=&quot;font-size: 20px;&quot;&gt;m&lt;/font&gt;" style="resizable=0;html=1;whiteSpace=wrap;align=right;verticalAlign=bottom;" parent="WIyWlLk6GJQsqaUBKTNV-1" connectable="0" vertex="1">
          <mxGeometry x="670.0020758196373" y="832.0008612413473" as="geometry">
            <mxPoint x="16" y="38" as="offset" />
          </mxGeometry>
        </mxCell>
        <mxCell id="YCPotoVFEUCIFsHt9eNJ-20" value="&lt;font style=&quot;font-size: 16px;&quot;&gt;roomtype_name&lt;/font&gt;" style="ellipse;whiteSpace=wrap;html=1;strokeWidth=2;" parent="WIyWlLk6GJQsqaUBKTNV-1" vertex="1">
          <mxGeometry x="560" y="1080" width="130" height="60" as="geometry" />
        </mxCell>
        <mxCell id="YCPotoVFEUCIFsHt9eNJ-21" value="" style="endArrow=none;html=1;rounded=0;exitX=0.5;exitY=0;exitDx=0;exitDy=0;entryX=0.25;entryY=1;entryDx=0;entryDy=0;strokeWidth=2;" parent="WIyWlLk6GJQsqaUBKTNV-1" source="YCPotoVFEUCIFsHt9eNJ-20" target="YCPotoVFEUCIFsHt9eNJ-14" edge="1">
          <mxGeometry width="50" height="50" relative="1" as="geometry">
            <mxPoint x="760" y="1015" as="sourcePoint" />
            <mxPoint x="720" y="993" as="targetPoint" />
          </mxGeometry>
        </mxCell>
        <mxCell id="sag1S6b3fnPaUIIgMV5h-0" value="&lt;font style=&quot;font-size: 16px;&quot;&gt;building&lt;/font&gt;" style="ellipse;whiteSpace=wrap;html=1;strokeWidth=2;" parent="WIyWlLk6GJQsqaUBKTNV-1" vertex="1">
          <mxGeometry x="785" y="730" width="105" height="50" as="geometry" />
        </mxCell>
        <mxCell id="sag1S6b3fnPaUIIgMV5h-1" value="" style="endArrow=none;html=1;rounded=0;exitX=0;exitY=1;exitDx=0;exitDy=0;entryX=1;entryY=0.25;entryDx=0;entryDy=0;strokeWidth=2;" parent="WIyWlLk6GJQsqaUBKTNV-1" source="sag1S6b3fnPaUIIgMV5h-0" target="PMSaIA7FyEmvQ9ItCfbO-2" edge="1">
          <mxGeometry width="50" height="50" relative="1" as="geometry">
            <mxPoint x="843" y="898" as="sourcePoint" />
            <mxPoint x="790" y="857" as="targetPoint" />
          </mxGeometry>
        </mxCell>
        <mxCell id="k7VmaomQBbGbPofmeIs0-0" value="&lt;font style=&quot;font-size: 25px;&quot;&gt;Reservation&lt;/font&gt;" style="rounded=0;whiteSpace=wrap;html=1;strokeWidth=2;" parent="WIyWlLk6GJQsqaUBKTNV-1" vertex="1">
          <mxGeometry x="1180" y="802" width="150" height="80" as="geometry" />
        </mxCell>
        <mxCell id="k7VmaomQBbGbPofmeIs0-3" value="&lt;font style=&quot;font-size: 16px;&quot;&gt;Tran_dt&lt;/font&gt;" style="ellipse;whiteSpace=wrap;html=1;strokeWidth=2;" parent="WIyWlLk6GJQsqaUBKTNV-1" vertex="1">
          <mxGeometry x="1315" y="726" width="100" height="58" as="geometry" />
        </mxCell>
        <mxCell id="k7VmaomQBbGbPofmeIs0-5" value="&lt;font style=&quot;font-size: 16px;&quot;&gt;end_date&lt;/font&gt;" style="ellipse;whiteSpace=wrap;html=1;strokeWidth=2;" parent="WIyWlLk6GJQsqaUBKTNV-1" vertex="1">
          <mxGeometry x="1380" y="890" width="120" height="52" as="geometry" />
        </mxCell>
        <mxCell id="k7VmaomQBbGbPofmeIs0-6" value="&lt;font style=&quot;font-size: 16px;&quot;&gt;start_date&lt;/font&gt;" style="ellipse;whiteSpace=wrap;html=1;strokeWidth=2;" parent="WIyWlLk6GJQsqaUBKTNV-1" vertex="1">
          <mxGeometry x="1270" y="912" width="100" height="48" as="geometry" />
        </mxCell>
        <mxCell id="k7VmaomQBbGbPofmeIs0-7" value="&lt;font style=&quot;font-size: 16px;&quot;&gt;status_code&lt;/font&gt;" style="ellipse;whiteSpace=wrap;html=1;strokeWidth=2;" parent="WIyWlLk6GJQsqaUBKTNV-1" vertex="1">
          <mxGeometry x="1150" y="914" width="110" height="48" as="geometry" />
        </mxCell>
        <mxCell id="k7VmaomQBbGbPofmeIs0-8" value="&lt;font style=&quot;font-size: 25px;&quot;&gt;Reservation_detail&lt;/font&gt;" style="rounded=0;whiteSpace=wrap;html=1;strokeWidth=2;" parent="WIyWlLk6GJQsqaUBKTNV-1" vertex="1">
          <mxGeometry x="945" y="970" width="225" height="92" as="geometry" />
        </mxCell>
        <mxCell id="k7VmaomQBbGbPofmeIs0-9" value="&lt;span style=&quot;border-color: var(--border-color); text-align: left;&quot;&gt;&lt;font style=&quot;font-size: 16px;&quot;&gt;&amp;nbsp;reservation_time&lt;/font&gt;&lt;/span&gt;" style="ellipse;whiteSpace=wrap;html=1;strokeWidth=2;" parent="WIyWlLk6GJQsqaUBKTNV-1" vertex="1">
          <mxGeometry x="987.5" y="1090" width="140" height="50" as="geometry" />
        </mxCell>
        <mxCell id="k7VmaomQBbGbPofmeIs0-11" value="" style="endArrow=none;html=1;rounded=0;exitX=0.75;exitY=0;exitDx=0;exitDy=0;entryX=0;entryY=1;entryDx=0;entryDy=0;strokeWidth=2;" parent="WIyWlLk6GJQsqaUBKTNV-1" source="k7VmaomQBbGbPofmeIs0-0" target="k7VmaomQBbGbPofmeIs0-3" edge="1">
          <mxGeometry width="50" height="50" relative="1" as="geometry">
            <mxPoint x="1233" y="810" as="sourcePoint" />
            <mxPoint x="1240" y="762" as="targetPoint" />
          </mxGeometry>
        </mxCell>
        <mxCell id="k7VmaomQBbGbPofmeIs0-13" value="" style="endArrow=none;html=1;rounded=0;exitX=0.75;exitY=1;exitDx=0;exitDy=0;entryX=0.5;entryY=0;entryDx=0;entryDy=0;strokeWidth=2;" parent="WIyWlLk6GJQsqaUBKTNV-1" source="k7VmaomQBbGbPofmeIs0-0" target="k7VmaomQBbGbPofmeIs0-6" edge="1">
          <mxGeometry width="50" height="50" relative="1" as="geometry">
            <mxPoint x="1340" y="832" as="sourcePoint" />
            <mxPoint x="1390" y="815" as="targetPoint" />
          </mxGeometry>
        </mxCell>
        <mxCell id="k7VmaomQBbGbPofmeIs0-14" value="" style="endArrow=none;html=1;rounded=0;exitX=1;exitY=0.75;exitDx=0;exitDy=0;entryX=0;entryY=0;entryDx=0;entryDy=0;strokeWidth=2;" parent="WIyWlLk6GJQsqaUBKTNV-1" source="k7VmaomQBbGbPofmeIs0-0" target="k7VmaomQBbGbPofmeIs0-5" edge="1">
          <mxGeometry width="50" height="50" relative="1" as="geometry">
            <mxPoint x="1303" y="892" as="sourcePoint" />
            <mxPoint x="1330" y="922" as="targetPoint" />
          </mxGeometry>
        </mxCell>
        <mxCell id="k7VmaomQBbGbPofmeIs0-15" value="" style="endArrow=none;html=1;rounded=0;exitX=0.25;exitY=1;exitDx=0;exitDy=0;entryX=0.5;entryY=0;entryDx=0;entryDy=0;strokeWidth=2;" parent="WIyWlLk6GJQsqaUBKTNV-1" source="k7VmaomQBbGbPofmeIs0-0" target="k7VmaomQBbGbPofmeIs0-7" edge="1">
          <mxGeometry width="50" height="50" relative="1" as="geometry">
            <mxPoint x="1313" y="902" as="sourcePoint" />
            <mxPoint x="1340" y="932" as="targetPoint" />
          </mxGeometry>
        </mxCell>
        <mxCell id="k7VmaomQBbGbPofmeIs0-16" value="" style="endArrow=none;html=1;rounded=0;exitX=0.5;exitY=1;exitDx=0;exitDy=0;entryX=0.5;entryY=0;entryDx=0;entryDy=0;strokeWidth=2;" parent="WIyWlLk6GJQsqaUBKTNV-1" source="k7VmaomQBbGbPofmeIs0-8" target="k7VmaomQBbGbPofmeIs0-9" edge="1">
          <mxGeometry width="50" height="50" relative="1" as="geometry">
            <mxPoint x="1228" y="892" as="sourcePoint" />
            <mxPoint x="1220" y="932" as="targetPoint" />
          </mxGeometry>
        </mxCell>
        <mxCell id="k7VmaomQBbGbPofmeIs0-17" value="" style="endArrow=none;html=1;rounded=0;exitX=1;exitY=0.5;exitDx=0;exitDy=0;entryX=0;entryY=0.25;entryDx=0;entryDy=0;strokeWidth=2;" parent="WIyWlLk6GJQsqaUBKTNV-1" source="k7VmaomQBbGbPofmeIs0-18" target="k7VmaomQBbGbPofmeIs0-0" edge="1">
          <mxGeometry width="50" height="50" relative="1" as="geometry">
            <mxPoint x="1228" y="892" as="sourcePoint" />
            <mxPoint x="1220" y="932" as="targetPoint" />
          </mxGeometry>
        </mxCell>
        <mxCell id="k7VmaomQBbGbPofmeIs0-22" value="" style="endArrow=none;html=1;rounded=0;exitX=1;exitY=0.75;exitDx=0;exitDy=0;entryX=0;entryY=0.5;entryDx=0;entryDy=0;strokeWidth=2;" parent="WIyWlLk6GJQsqaUBKTNV-1" source="PMSaIA7FyEmvQ9ItCfbO-2" target="k7VmaomQBbGbPofmeIs0-18" edge="1">
          <mxGeometry width="50" height="50" relative="1" as="geometry">
            <mxPoint x="780" y="826" as="sourcePoint" />
            <mxPoint x="1180" y="842" as="targetPoint" />
          </mxGeometry>
        </mxCell>
        <mxCell id="k7VmaomQBbGbPofmeIs0-18" value="" style="rhombus;whiteSpace=wrap;html=1;strokeWidth=2;" parent="WIyWlLk6GJQsqaUBKTNV-1" vertex="1">
          <mxGeometry x="960" y="812" width="20" height="20" as="geometry" />
        </mxCell>
        <mxCell id="k7VmaomQBbGbPofmeIs0-23" value="&lt;font style=&quot;font-size: 20px;&quot;&gt;1&lt;/font&gt;" style="text;html=1;align=center;verticalAlign=middle;resizable=0;points=[];autosize=1;strokeColor=none;fillColor=none;strokeWidth=2;" parent="WIyWlLk6GJQsqaUBKTNV-1" vertex="1">
          <mxGeometry x="797" y="784" width="30" height="40" as="geometry" />
        </mxCell>
        <mxCell id="k7VmaomQBbGbPofmeIs0-24" value="&lt;font style=&quot;font-size: 20px;&quot;&gt;m&lt;/font&gt;" style="text;html=1;align=center;verticalAlign=middle;resizable=0;points=[];autosize=1;strokeColor=none;fillColor=none;strokeWidth=2;" parent="WIyWlLk6GJQsqaUBKTNV-1" vertex="1">
          <mxGeometry x="1110" y="790" width="40" height="40" as="geometry" />
        </mxCell>
        <mxCell id="k7VmaomQBbGbPofmeIs0-28" value="" style="endArrow=none;html=1;rounded=0;exitX=1;exitY=0.75;exitDx=0;exitDy=0;entryX=0;entryY=0;entryDx=0;entryDy=0;strokeWidth=2;" parent="WIyWlLk6GJQsqaUBKTNV-1" source="k7VmaomQBbGbPofmeIs0-30" target="k7VmaomQBbGbPofmeIs0-0" edge="1">
          <mxGeometry width="50" height="50" relative="1" as="geometry">
            <mxPoint x="987" y="845" as="sourcePoint" />
            <mxPoint x="1190" y="852" as="targetPoint" />
          </mxGeometry>
        </mxCell>
        <mxCell id="k7VmaomQBbGbPofmeIs0-31" value="" style="endArrow=none;html=1;rounded=0;exitX=1;exitY=0.75;exitDx=0;exitDy=0;entryX=0;entryY=0;entryDx=0;entryDy=0;strokeWidth=2;" parent="WIyWlLk6GJQsqaUBKTNV-1" source="PMSaIA7FyEmvQ9ItCfbO-4" target="k7VmaomQBbGbPofmeIs0-30" edge="1">
          <mxGeometry width="50" height="50" relative="1" as="geometry">
            <mxPoint x="720" y="542" as="sourcePoint" />
            <mxPoint x="1180" y="802" as="targetPoint" />
          </mxGeometry>
        </mxCell>
        <mxCell id="k7VmaomQBbGbPofmeIs0-30" value="" style="rhombus;whiteSpace=wrap;html=1;strokeWidth=2;" parent="WIyWlLk6GJQsqaUBKTNV-1" vertex="1">
          <mxGeometry x="920" y="652" width="20" height="20" as="geometry" />
        </mxCell>
        <mxCell id="k7VmaomQBbGbPofmeIs0-32" value="&lt;font style=&quot;font-size: 20px;&quot;&gt;m&lt;/font&gt;" style="text;html=1;align=center;verticalAlign=middle;resizable=0;points=[];autosize=1;strokeColor=none;fillColor=none;strokeWidth=2;" parent="WIyWlLk6GJQsqaUBKTNV-1" vertex="1">
          <mxGeometry x="1070" y="717" width="40" height="40" as="geometry" />
        </mxCell>
        <mxCell id="k7VmaomQBbGbPofmeIs0-33" value="&lt;font style=&quot;font-size: 20px;&quot;&gt;1&lt;/font&gt;" style="text;html=1;align=center;verticalAlign=middle;resizable=0;points=[];autosize=1;strokeColor=none;fillColor=none;" parent="WIyWlLk6GJQsqaUBKTNV-1" vertex="1">
          <mxGeometry x="755" y="535" width="30" height="40" as="geometry" />
        </mxCell>
        <mxCell id="k7VmaomQBbGbPofmeIs0-37" value="" style="endArrow=none;html=1;rounded=0;exitX=0;exitY=0.5;exitDx=0;exitDy=0;entryX=0.5;entryY=0;entryDx=0;entryDy=0;strokeWidth=2;" parent="WIyWlLk6GJQsqaUBKTNV-1" source="e9zDsiPC8dvcw3Dsuo-7-36" target="k7VmaomQBbGbPofmeIs0-8" edge="1">
          <mxGeometry width="50" height="50" relative="1" as="geometry">
            <mxPoint x="1180" y="882" as="sourcePoint" />
            <mxPoint x="1020" y="880" as="targetPoint" />
            <Array as="points">
              <mxPoint x="1058" y="862" />
            </Array>
          </mxGeometry>
        </mxCell>
        <mxCell id="k7VmaomQBbGbPofmeIs0-38" value="&lt;font style=&quot;font-size: 20px;&quot;&gt;1&lt;/font&gt;" style="text;html=1;align=center;verticalAlign=middle;resizable=0;points=[];autosize=1;strokeColor=none;fillColor=none;" parent="WIyWlLk6GJQsqaUBKTNV-1" vertex="1">
          <mxGeometry x="1020" y="935" width="30" height="40" as="geometry" />
        </mxCell>
        <mxCell id="k7VmaomQBbGbPofmeIs0-39" value="&lt;font style=&quot;font-size: 20px;&quot;&gt;m&lt;/font&gt;" style="text;html=1;align=center;verticalAlign=middle;resizable=0;points=[];autosize=1;strokeColor=none;fillColor=none;strokeWidth=2;" parent="WIyWlLk6GJQsqaUBKTNV-1" vertex="1">
          <mxGeometry x="1125" y="860" width="40" height="40" as="geometry" />
        </mxCell>
        <mxCell id="k7VmaomQBbGbPofmeIs0-44" value="&lt;font style=&quot;font-size: 16px;&quot;&gt;Year&lt;/font&gt;" style="ellipse;whiteSpace=wrap;html=1;strokeWidth=2;" parent="WIyWlLk6GJQsqaUBKTNV-1" vertex="1">
          <mxGeometry x="500" y="402" width="90" height="40" as="geometry" />
        </mxCell>
        <mxCell id="k7VmaomQBbGbPofmeIs0-45" value="" style="endArrow=none;html=1;rounded=0;exitX=0.5;exitY=1;exitDx=0;exitDy=0;entryX=0;entryY=0;entryDx=0;entryDy=0;strokeWidth=2;" parent="WIyWlLk6GJQsqaUBKTNV-1" source="k7VmaomQBbGbPofmeIs0-44" target="PMSaIA7FyEmvQ9ItCfbO-4" edge="1">
          <mxGeometry width="50" height="50" relative="1" as="geometry">
            <mxPoint x="695" y="382" as="sourcePoint" />
            <mxPoint x="693" y="492" as="targetPoint" />
          </mxGeometry>
        </mxCell>
        <mxCell id="k7VmaomQBbGbPofmeIs0-47" value="&lt;font style=&quot;font-size: 20px;&quot;&gt;m&lt;/font&gt;" style="text;html=1;align=center;verticalAlign=middle;resizable=0;points=[];autosize=1;strokeColor=none;fillColor=none;strokeWidth=2;" parent="WIyWlLk6GJQsqaUBKTNV-1" vertex="1">
          <mxGeometry x="1245" y="747" width="40" height="40" as="geometry" />
        </mxCell>
        <mxCell id="k7VmaomQBbGbPofmeIs0-48" value="&lt;font style=&quot;font-size: 20px;&quot;&gt;1&lt;/font&gt;" style="text;html=1;align=center;verticalAlign=middle;resizable=0;points=[];autosize=1;strokeColor=none;fillColor=none;strokeWidth=2;" parent="WIyWlLk6GJQsqaUBKTNV-1" vertex="1">
          <mxGeometry x="1250" y="565" width="30" height="40" as="geometry" />
        </mxCell>
        <mxCell id="k7VmaomQBbGbPofmeIs0-59" value="&lt;font style=&quot;font-size: 25px;&quot;&gt;Users&lt;/font&gt;" style="rounded=0;whiteSpace=wrap;html=1;strokeWidth=2;" parent="WIyWlLk6GJQsqaUBKTNV-1" vertex="1">
          <mxGeometry x="1180" y="472" width="140" height="80" as="geometry" />
        </mxCell>
        <mxCell id="k7VmaomQBbGbPofmeIs0-66" value="" style="endArrow=none;html=1;rounded=0;exitX=0.5;exitY=1;exitDx=0;exitDy=0;entryX=0.5;entryY=0;entryDx=0;entryDy=0;strokeWidth=2;" parent="WIyWlLk6GJQsqaUBKTNV-1" source="e9zDsiPC8dvcw3Dsuo-7-25" target="k7VmaomQBbGbPofmeIs0-0" edge="1">
          <mxGeometry width="50" height="50" relative="1" as="geometry">
            <mxPoint x="1241" y="582" as="sourcePoint" />
            <mxPoint x="1247.4118095489748" y="672.3407417371093" as="targetPoint" />
          </mxGeometry>
        </mxCell>
        <mxCell id="k7VmaomQBbGbPofmeIs0-67" value="&lt;font style=&quot;font-size: 16px;&quot;&gt;user_id&lt;/font&gt;" style="ellipse;whiteSpace=wrap;html=1;strokeWidth=2;" parent="WIyWlLk6GJQsqaUBKTNV-1" vertex="1">
          <mxGeometry x="1250" y="410" width="90" height="52" as="geometry" />
        </mxCell>
        <mxCell id="k7VmaomQBbGbPofmeIs0-68" value="&lt;font style=&quot;font-size: 16px;&quot;&gt;password&lt;/font&gt;" style="ellipse;whiteSpace=wrap;html=1;strokeWidth=2;" parent="WIyWlLk6GJQsqaUBKTNV-1" vertex="1">
          <mxGeometry x="1340" y="512" width="110" height="48" as="geometry" />
        </mxCell>
        <mxCell id="k7VmaomQBbGbPofmeIs0-69" value="" style="endArrow=none;html=1;rounded=0;exitX=0.75;exitY=0;exitDx=0;exitDy=0;entryX=0.5;entryY=1;entryDx=0;entryDy=0;strokeWidth=2;" parent="WIyWlLk6GJQsqaUBKTNV-1" source="k7VmaomQBbGbPofmeIs0-59" target="k7VmaomQBbGbPofmeIs0-67" edge="1">
          <mxGeometry width="50" height="50" relative="1" as="geometry">
            <mxPoint x="1144" y="450" as="sourcePoint" />
            <mxPoint x="1100" y="472" as="targetPoint" />
          </mxGeometry>
        </mxCell>
        <mxCell id="k7VmaomQBbGbPofmeIs0-70" value="" style="endArrow=none;html=1;rounded=0;exitX=1;exitY=0.75;exitDx=0;exitDy=0;entryX=0;entryY=0.5;entryDx=0;entryDy=0;strokeWidth=2;" parent="WIyWlLk6GJQsqaUBKTNV-1" source="k7VmaomQBbGbPofmeIs0-59" target="k7VmaomQBbGbPofmeIs0-68" edge="1">
          <mxGeometry width="50" height="50" relative="1" as="geometry">
            <mxPoint x="1295" y="512" as="sourcePoint" />
            <mxPoint x="1305" y="482" as="targetPoint" />
          </mxGeometry>
        </mxCell>
        <mxCell id="k7VmaomQBbGbPofmeIs0-71" value="" style="endArrow=none;html=1;rounded=0;entryX=1;entryY=0.5;entryDx=0;entryDy=0;exitX=0;exitY=0.5;exitDx=0;exitDy=0;strokeWidth=2;" parent="WIyWlLk6GJQsqaUBKTNV-1" source="e9zDsiPC8dvcw3Dsuo-7-27" target="PMSaIA7FyEmvQ9ItCfbO-5" edge="1">
          <mxGeometry width="50" height="50" relative="1" as="geometry">
            <mxPoint x="1100" y="522" as="sourcePoint" />
            <mxPoint x="1257" y="682" as="targetPoint" />
          </mxGeometry>
        </mxCell>
        <mxCell id="k7VmaomQBbGbPofmeIs0-77" value="&lt;font style=&quot;font-size: 20px;&quot;&gt;1&lt;/font&gt;" style="text;html=1;align=center;verticalAlign=middle;resizable=0;points=[];autosize=1;strokeColor=none;fillColor=none;strokeWidth=2;" parent="WIyWlLk6GJQsqaUBKTNV-1" vertex="1">
          <mxGeometry x="1140" y="465" width="30" height="40" as="geometry" />
        </mxCell>
        <mxCell id="k7VmaomQBbGbPofmeIs0-78" value="&lt;font style=&quot;font-size: 20px;&quot;&gt;1&lt;/font&gt;" style="text;html=1;align=center;verticalAlign=middle;resizable=0;points=[];autosize=1;strokeColor=none;fillColor=none;strokeWidth=2;" parent="WIyWlLk6GJQsqaUBKTNV-1" vertex="1">
          <mxGeometry x="1045" y="465" width="30" height="40" as="geometry" />
        </mxCell>
        <mxCell id="e9zDsiPC8dvcw3Dsuo-7-6" value="" style="endArrow=none;html=1;rounded=0;entryX=0;entryY=0.5;entryDx=0;entryDy=0;strokeWidth=2;" parent="WIyWlLk6GJQsqaUBKTNV-1" source="e9zDsiPC8dvcw3Dsuo-7-19" target="YCPotoVFEUCIFsHt9eNJ-2" edge="1">
          <mxGeometry relative="1" as="geometry">
            <mxPoint x="245" y="402" as="sourcePoint" />
            <mxPoint x="255" y="222" as="targetPoint" />
            <Array as="points">
              <mxPoint x="245" y="254" />
            </Array>
          </mxGeometry>
        </mxCell>
        <mxCell id="e9zDsiPC8dvcw3Dsuo-7-9" value="&lt;font style=&quot;font-size: 20px;&quot;&gt;1&lt;/font&gt;" style="text;html=1;align=center;verticalAlign=middle;resizable=0;points=[];autosize=1;strokeColor=none;fillColor=none;strokeWidth=2;" parent="WIyWlLk6GJQsqaUBKTNV-1" vertex="1">
          <mxGeometry x="275" y="219" width="30" height="40" as="geometry" />
        </mxCell>
        <mxCell id="e9zDsiPC8dvcw3Dsuo-7-10" value="&lt;font style=&quot;font-size: 20px;&quot;&gt;m&lt;/font&gt;" style="text;html=1;align=center;verticalAlign=middle;resizable=0;points=[];autosize=1;strokeColor=none;fillColor=none;" parent="WIyWlLk6GJQsqaUBKTNV-1" vertex="1">
          <mxGeometry x="245" y="397" width="40" height="40" as="geometry" />
        </mxCell>
        <mxCell id="e9zDsiPC8dvcw3Dsuo-7-20" value="" style="endArrow=none;html=1;rounded=0;entryX=0.5;entryY=1;entryDx=0;entryDy=0;exitX=0.25;exitY=0;exitDx=0;exitDy=0;" parent="WIyWlLk6GJQsqaUBKTNV-1" source="PMSaIA7FyEmvQ9ItCfbO-0" target="e9zDsiPC8dvcw3Dsuo-7-19" edge="1">
          <mxGeometry relative="1" as="geometry">
            <mxPoint x="235" y="485.5" as="sourcePoint" />
            <mxPoint x="310" y="337.5" as="targetPoint" />
            <Array as="points" />
          </mxGeometry>
        </mxCell>
        <mxCell id="e9zDsiPC8dvcw3Dsuo-7-19" value="" style="rhombus;whiteSpace=wrap;html=1;strokeWidth=2;" parent="WIyWlLk6GJQsqaUBKTNV-1" vertex="1">
          <mxGeometry x="235" y="294" width="20" height="20" as="geometry" />
        </mxCell>
        <mxCell id="e9zDsiPC8dvcw3Dsuo-7-21" value="&lt;font style=&quot;font-size: 20px;&quot;&gt;m&lt;/font&gt;" style="text;html=1;align=center;verticalAlign=middle;resizable=0;points=[];autosize=1;strokeColor=none;fillColor=none;" parent="WIyWlLk6GJQsqaUBKTNV-1" vertex="1">
          <mxGeometry x="860" y="482" width="40" height="40" as="geometry" />
        </mxCell>
        <mxCell id="e9zDsiPC8dvcw3Dsuo-7-23" value="" style="endArrow=none;html=1;rounded=0;exitX=1;exitY=0.5;exitDx=0;exitDy=0;entryX=0;entryY=0.5;entryDx=0;entryDy=0;strokeWidth=2;" parent="WIyWlLk6GJQsqaUBKTNV-1" source="PMSaIA7FyEmvQ9ItCfbO-4" target="e9zDsiPC8dvcw3Dsuo-7-22" edge="1">
          <mxGeometry relative="1" as="geometry">
            <mxPoint x="720" y="522" as="sourcePoint" />
            <mxPoint x="910" y="522" as="targetPoint" />
          </mxGeometry>
        </mxCell>
        <mxCell id="e9zDsiPC8dvcw3Dsuo-7-24" value="&lt;font style=&quot;font-size: 20px;&quot;&gt;m&lt;/font&gt;" style="resizable=0;html=1;whiteSpace=wrap;align=left;verticalAlign=bottom;" parent="e9zDsiPC8dvcw3Dsuo-7-23" connectable="0" vertex="1">
          <mxGeometry x="-1" relative="1" as="geometry">
            <mxPoint x="10" y="-12" as="offset" />
          </mxGeometry>
        </mxCell>
        <mxCell id="e9zDsiPC8dvcw3Dsuo-7-22" value="" style="rhombus;whiteSpace=wrap;html=1;strokeWidth=2;" parent="WIyWlLk6GJQsqaUBKTNV-1" vertex="1">
          <mxGeometry x="807" y="512" width="20" height="20" as="geometry" />
        </mxCell>
        <mxCell id="e9zDsiPC8dvcw3Dsuo-7-26" value="" style="endArrow=none;html=1;rounded=0;exitX=0.5;exitY=1;exitDx=0;exitDy=0;entryX=0.5;entryY=0;entryDx=0;entryDy=0;strokeWidth=2;" parent="WIyWlLk6GJQsqaUBKTNV-1" source="k7VmaomQBbGbPofmeIs0-59" target="e9zDsiPC8dvcw3Dsuo-7-25" edge="1">
          <mxGeometry width="50" height="50" relative="1" as="geometry">
            <mxPoint x="1250" y="557" as="sourcePoint" />
            <mxPoint x="1255" y="802" as="targetPoint" />
          </mxGeometry>
        </mxCell>
        <mxCell id="e9zDsiPC8dvcw3Dsuo-7-25" value="" style="rhombus;whiteSpace=wrap;html=1;strokeWidth=2;" parent="WIyWlLk6GJQsqaUBKTNV-1" vertex="1">
          <mxGeometry x="1240" y="662" width="20" height="20" as="geometry" />
        </mxCell>
        <mxCell id="e9zDsiPC8dvcw3Dsuo-7-28" value="" style="endArrow=none;html=1;rounded=0;entryX=1;entryY=0.5;entryDx=0;entryDy=0;exitX=0;exitY=0.35;exitDx=0;exitDy=0;exitPerimeter=0;strokeWidth=2;" parent="WIyWlLk6GJQsqaUBKTNV-1" source="k7VmaomQBbGbPofmeIs0-59" target="e9zDsiPC8dvcw3Dsuo-7-27" edge="1">
          <mxGeometry width="50" height="50" relative="1" as="geometry">
            <mxPoint x="1180" y="505" as="sourcePoint" />
            <mxPoint x="1050" y="502" as="targetPoint" />
          </mxGeometry>
        </mxCell>
        <mxCell id="e9zDsiPC8dvcw3Dsuo-7-27" value="" style="rhombus;whiteSpace=wrap;html=1;strokeWidth=2;" parent="WIyWlLk6GJQsqaUBKTNV-1" vertex="1">
          <mxGeometry x="1100" y="492" width="20" height="20" as="geometry" />
        </mxCell>
        <mxCell id="e9zDsiPC8dvcw3Dsuo-7-29" value="" style="endArrow=none;html=1;rounded=0;exitX=0.5;exitY=1;exitDx=0;exitDy=0;entryX=0.194;entryY=0.012;entryDx=0;entryDy=0;entryPerimeter=0;strokeWidth=2;" parent="WIyWlLk6GJQsqaUBKTNV-1" source="e9zDsiPC8dvcw3Dsuo-7-32" target="PMSaIA7FyEmvQ9ItCfbO-2" edge="1">
          <mxGeometry width="50" height="50" relative="1" as="geometry">
            <mxPoint x="693" y="572" as="sourcePoint" />
            <mxPoint x="735" y="602" as="targetPoint" />
          </mxGeometry>
        </mxCell>
        <mxCell id="e9zDsiPC8dvcw3Dsuo-7-30" value="&lt;font style=&quot;font-size: 20px;&quot;&gt;m&lt;/font&gt;" style="text;html=1;align=center;verticalAlign=middle;resizable=0;points=[];autosize=1;strokeColor=none;fillColor=none;" parent="WIyWlLk6GJQsqaUBKTNV-1" vertex="1">
          <mxGeometry x="605" y="572" width="40" height="40" as="geometry" />
        </mxCell>
        <mxCell id="e9zDsiPC8dvcw3Dsuo-7-31" value="&lt;font style=&quot;font-size: 20px;&quot;&gt;1&lt;/font&gt;" style="text;html=1;align=center;verticalAlign=middle;resizable=0;points=[];autosize=1;strokeColor=none;fillColor=none;" parent="WIyWlLk6GJQsqaUBKTNV-1" vertex="1">
          <mxGeometry x="610" y="717" width="30" height="40" as="geometry" />
        </mxCell>
        <mxCell id="e9zDsiPC8dvcw3Dsuo-7-33" value="" style="endArrow=none;html=1;rounded=0;exitX=0.5;exitY=1;exitDx=0;exitDy=0;entryX=0.5;entryY=0;entryDx=0;entryDy=0;strokeWidth=2;" parent="WIyWlLk6GJQsqaUBKTNV-1" source="PMSaIA7FyEmvQ9ItCfbO-4" target="e9zDsiPC8dvcw3Dsuo-7-32" edge="1">
          <mxGeometry width="50" height="50" relative="1" as="geometry">
            <mxPoint x="645" y="562" as="sourcePoint" />
            <mxPoint x="643" y="763" as="targetPoint" />
          </mxGeometry>
        </mxCell>
        <mxCell id="e9zDsiPC8dvcw3Dsuo-7-32" value="" style="rhombus;whiteSpace=wrap;html=1;strokeWidth=2;" parent="WIyWlLk6GJQsqaUBKTNV-1" vertex="1">
          <mxGeometry x="635" y="652" width="20" height="20" as="geometry" />
        </mxCell>
        <mxCell id="e9zDsiPC8dvcw3Dsuo-7-35" value="" style="endArrow=none;html=1;rounded=0;entryX=0.5;entryY=1;entryDx=0;entryDy=0;exitX=0.5;exitY=0;exitDx=0;exitDy=0;" parent="WIyWlLk6GJQsqaUBKTNV-1" source="YCPotoVFEUCIFsHt9eNJ-14" target="e9zDsiPC8dvcw3Dsuo-7-34" edge="1">
          <mxGeometry width="50" height="50" relative="1" as="geometry">
            <mxPoint x="695" y="970" as="sourcePoint" />
            <mxPoint x="695" y="847" as="targetPoint" />
          </mxGeometry>
        </mxCell>
        <mxCell id="e9zDsiPC8dvcw3Dsuo-7-34" value="" style="rhombus;whiteSpace=wrap;html=1;strokeWidth=2;" parent="WIyWlLk6GJQsqaUBKTNV-1" vertex="1">
          <mxGeometry x="685" y="902" width="20" height="20" as="geometry" />
        </mxCell>
        <mxCell id="e9zDsiPC8dvcw3Dsuo-7-37" value="" style="endArrow=none;html=1;rounded=0;exitX=0;exitY=0.75;exitDx=0;exitDy=0;entryX=1;entryY=0.5;entryDx=0;entryDy=0;strokeWidth=2;" parent="WIyWlLk6GJQsqaUBKTNV-1" source="k7VmaomQBbGbPofmeIs0-0" target="e9zDsiPC8dvcw3Dsuo-7-36" edge="1">
          <mxGeometry width="50" height="50" relative="1" as="geometry">
            <mxPoint x="1180" y="882" as="sourcePoint" />
            <mxPoint x="1045" y="982" as="targetPoint" />
            <Array as="points" />
          </mxGeometry>
        </mxCell>
        <mxCell id="e9zDsiPC8dvcw3Dsuo-7-36" value="" style="rhombus;whiteSpace=wrap;html=1;strokeWidth=2;" parent="WIyWlLk6GJQsqaUBKTNV-1" vertex="1">
          <mxGeometry x="1095" y="852" width="20" height="20" as="geometry" />
        </mxCell>
        <mxCell id="vfn6z5kIUffg8-J15Ueo-0" value="&lt;font style=&quot;font-size: 25px;&quot;&gt;Calendar&lt;/font&gt;" style="rounded=0;whiteSpace=wrap;html=1;strokeWidth=2;" parent="WIyWlLk6GJQsqaUBKTNV-1" vertex="1">
          <mxGeometry x="225" y="992" width="160" height="85" as="geometry" />
        </mxCell>
        <mxCell id="vfn6z5kIUffg8-J15Ueo-1" value="&lt;font style=&quot;font-size: 16px;&quot;&gt;date_end&lt;/font&gt;" style="ellipse;whiteSpace=wrap;html=1;strokeWidth=2;" parent="WIyWlLk6GJQsqaUBKTNV-1" vertex="1">
          <mxGeometry x="250" y="1090" width="110" height="50" as="geometry" />
        </mxCell>
        <mxCell id="vfn6z5kIUffg8-J15Ueo-2" value="&lt;u style=&quot;border-color: var(--border-color); text-align: left;&quot;&gt;&lt;font style=&quot;font-size: 16px;&quot;&gt;Term&lt;/font&gt;&lt;/u&gt;" style="ellipse;whiteSpace=wrap;html=1;strokeWidth=2;" parent="WIyWlLk6GJQsqaUBKTNV-1" vertex="1">
          <mxGeometry x="120" y="1014.5" width="90" height="40" as="geometry" />
        </mxCell>
        <mxCell id="vfn6z5kIUffg8-J15Ueo-3" value="" style="endArrow=none;html=1;rounded=0;exitX=1;exitY=0.5;exitDx=0;exitDy=0;entryX=0;entryY=0.5;entryDx=0;entryDy=0;strokeWidth=2;" parent="WIyWlLk6GJQsqaUBKTNV-1" source="vfn6z5kIUffg8-J15Ueo-2" target="vfn6z5kIUffg8-J15Ueo-0" edge="1">
          <mxGeometry width="50" height="50" relative="1" as="geometry">
            <mxPoint x="255" y="872" as="sourcePoint" />
            <mxPoint x="305" y="822" as="targetPoint" />
          </mxGeometry>
        </mxCell>
        <mxCell id="vfn6z5kIUffg8-J15Ueo-4" value="" style="endArrow=none;html=1;rounded=0;exitX=0.5;exitY=0;exitDx=0;exitDy=0;entryX=0.5;entryY=1;entryDx=0;entryDy=0;strokeWidth=2;" parent="WIyWlLk6GJQsqaUBKTNV-1" source="vfn6z5kIUffg8-J15Ueo-1" target="vfn6z5kIUffg8-J15Ueo-0" edge="1">
          <mxGeometry width="50" height="50" relative="1" as="geometry">
            <mxPoint x="150" y="992" as="sourcePoint" />
            <mxPoint x="225" y="1023" as="targetPoint" />
          </mxGeometry>
        </mxCell>
        <mxCell id="vfn6z5kIUffg8-J15Ueo-6" value="&lt;u style=&quot;border-color: var(--border-color); text-align: left;&quot;&gt;&lt;font style=&quot;font-size: 16px;&quot;&gt;Year&lt;/font&gt;&lt;/u&gt;" style="ellipse;whiteSpace=wrap;html=1;strokeWidth=2;" parent="WIyWlLk6GJQsqaUBKTNV-1" vertex="1">
          <mxGeometry x="260" y="935" width="90" height="40" as="geometry" />
        </mxCell>
        <mxCell id="vfn6z5kIUffg8-J15Ueo-7" value="" style="endArrow=none;html=1;rounded=0;exitX=0.5;exitY=1;exitDx=0;exitDy=0;entryX=0.5;entryY=0;entryDx=0;entryDy=0;strokeWidth=2;" parent="WIyWlLk6GJQsqaUBKTNV-1" source="vfn6z5kIUffg8-J15Ueo-6" target="vfn6z5kIUffg8-J15Ueo-0" edge="1">
          <mxGeometry width="50" height="50" relative="1" as="geometry">
            <mxPoint x="385" y="961" as="sourcePoint" />
            <mxPoint x="425" y="982" as="targetPoint" />
          </mxGeometry>
        </mxCell>
        <mxCell id="vfn6z5kIUffg8-J15Ueo-8" value="&lt;font style=&quot;font-size: 16px;&quot;&gt;date_begin&lt;/font&gt;" style="ellipse;whiteSpace=wrap;html=1;strokeWidth=2;" parent="WIyWlLk6GJQsqaUBKTNV-1" vertex="1">
          <mxGeometry x="400" y="1006.5" width="110" height="55.5" as="geometry" />
        </mxCell>
        <mxCell id="vfn6z5kIUffg8-J15Ueo-9" value="" style="endArrow=none;html=1;rounded=0;exitX=0;exitY=0.5;exitDx=0;exitDy=0;entryX=1;entryY=0.5;entryDx=0;entryDy=0;strokeWidth=2;" parent="WIyWlLk6GJQsqaUBKTNV-1" source="vfn6z5kIUffg8-J15Ueo-8" target="vfn6z5kIUffg8-J15Ueo-0" edge="1">
          <mxGeometry width="50" height="50" relative="1" as="geometry">
            <mxPoint x="315" y="972" as="sourcePoint" />
            <mxPoint x="315" y="1002" as="targetPoint" />
          </mxGeometry>
        </mxCell>
        <mxCell id="KzKYegzIuxJhYJ5iNqQt-0" value="&lt;font style=&quot;font-size: 25px;&quot;&gt;Staft&lt;/font&gt;" style="rounded=0;whiteSpace=wrap;html=1;strokeWidth=2;" parent="WIyWlLk6GJQsqaUBKTNV-1" vertex="1">
          <mxGeometry x="1445" y="592" width="140" height="80" as="geometry" />
        </mxCell>
        <mxCell id="KzKYegzIuxJhYJ5iNqQt-1" value="&lt;font style=&quot;font-size: 16px;&quot;&gt;staft_name&lt;/font&gt;" style="ellipse;whiteSpace=wrap;html=1;strokeWidth=2;" parent="WIyWlLk6GJQsqaUBKTNV-1" vertex="1">
          <mxGeometry x="1470" y="702" width="90" height="48" as="geometry" />
        </mxCell>
        <mxCell id="KzKYegzIuxJhYJ5iNqQt-2" value="&lt;font style=&quot;font-size: 16px;&quot;&gt;staft_id&lt;/font&gt;" style="ellipse;whiteSpace=wrap;html=1;strokeWidth=2;" parent="WIyWlLk6GJQsqaUBKTNV-1" vertex="1">
          <mxGeometry x="1470" y="510" width="90" height="45" as="geometry" />
        </mxCell>
        <mxCell id="KzKYegzIuxJhYJ5iNqQt-3" value="" style="endArrow=none;html=1;rounded=0;exitX=0.5;exitY=1;exitDx=0;exitDy=0;entryX=0.5;entryY=0;entryDx=0;entryDy=0;strokeWidth=2;" parent="WIyWlLk6GJQsqaUBKTNV-1" source="KzKYegzIuxJhYJ5iNqQt-2" target="KzKYegzIuxJhYJ5iNqQt-0" edge="1">
          <mxGeometry width="50" height="50" relative="1" as="geometry">
            <mxPoint x="1265" y="622" as="sourcePoint" />
            <mxPoint x="1284" y="571" as="targetPoint" />
          </mxGeometry>
        </mxCell>
        <mxCell id="KzKYegzIuxJhYJ5iNqQt-4" value="" style="endArrow=none;html=1;rounded=0;exitX=0.5;exitY=1;exitDx=0;exitDy=0;entryX=0.5;entryY=0;entryDx=0;entryDy=0;strokeWidth=2;" parent="WIyWlLk6GJQsqaUBKTNV-1" source="KzKYegzIuxJhYJ5iNqQt-0" target="KzKYegzIuxJhYJ5iNqQt-1" edge="1">
          <mxGeometry width="50" height="50" relative="1" as="geometry">
            <mxPoint x="1265" y="622" as="sourcePoint" />
            <mxPoint x="1284" y="571" as="targetPoint" />
          </mxGeometry>
        </mxCell>
        <mxCell id="KzKYegzIuxJhYJ5iNqQt-8" value="" style="endArrow=none;html=1;rounded=0;entryX=0;entryY=0.5;entryDx=0;entryDy=0;exitX=1;exitY=0.5;exitDx=0;exitDy=0;strokeWidth=2;" parent="WIyWlLk6GJQsqaUBKTNV-1" source="KzKYegzIuxJhYJ5iNqQt-13" target="KzKYegzIuxJhYJ5iNqQt-0" edge="1">
          <mxGeometry width="50" height="50" relative="1" as="geometry">
            <mxPoint x="1390" y="610" as="sourcePoint" />
            <mxPoint x="1385" y="587" as="targetPoint" />
          </mxGeometry>
        </mxCell>
        <mxCell id="KzKYegzIuxJhYJ5iNqQt-13" value="" style="rhombus;whiteSpace=wrap;html=1;rotation=30;strokeWidth=2;" parent="WIyWlLk6GJQsqaUBKTNV-1" vertex="1">
          <mxGeometry x="1370" y="592" width="20" height="20" as="geometry" />
        </mxCell>
        <mxCell id="KzKYegzIuxJhYJ5iNqQt-14" value="" style="endArrow=none;html=1;rounded=0;entryX=0;entryY=0.5;entryDx=0;entryDy=0;exitX=1;exitY=0.5;exitDx=0;exitDy=0;strokeWidth=2;" parent="WIyWlLk6GJQsqaUBKTNV-1" target="KzKYegzIuxJhYJ5iNqQt-13" edge="1">
          <mxGeometry width="50" height="50" relative="1" as="geometry">
            <mxPoint x="1320" y="552" as="sourcePoint" />
            <mxPoint x="1376" y="577" as="targetPoint" />
          </mxGeometry>
        </mxCell>
        <mxCell id="KzKYegzIuxJhYJ5iNqQt-15" value="&lt;font style=&quot;font-size: 20px;&quot;&gt;1&lt;/font&gt;" style="text;html=1;align=center;verticalAlign=middle;resizable=0;points=[];autosize=1;strokeColor=none;fillColor=none;strokeWidth=2;" parent="WIyWlLk6GJQsqaUBKTNV-1" vertex="1">
          <mxGeometry x="1305" y="562" width="30" height="40" as="geometry" />
        </mxCell>
        <mxCell id="KzKYegzIuxJhYJ5iNqQt-16" value="&lt;font style=&quot;font-size: 20px;&quot;&gt;1&lt;/font&gt;" style="text;html=1;align=center;verticalAlign=middle;resizable=0;points=[];autosize=1;strokeColor=none;fillColor=none;strokeWidth=2;" parent="WIyWlLk6GJQsqaUBKTNV-1" vertex="1">
          <mxGeometry x="1410" y="622" width="30" height="40" as="geometry" />
        </mxCell>
        <mxCell id="KzKYegzIuxJhYJ5iNqQt-17" value="&lt;font style=&quot;font-size: 16px;&quot;&gt;role&lt;/font&gt;" style="ellipse;whiteSpace=wrap;html=1;strokeWidth=2;" parent="WIyWlLk6GJQsqaUBKTNV-1" vertex="1">
          <mxGeometry x="1140" y="410" width="90" height="40" as="geometry" />
        </mxCell>
        <mxCell id="KzKYegzIuxJhYJ5iNqQt-18" value="" style="endArrow=none;html=1;rounded=0;entryX=0.5;entryY=1;entryDx=0;entryDy=0;exitX=0.25;exitY=0;exitDx=0;exitDy=0;strokeWidth=2;" parent="WIyWlLk6GJQsqaUBKTNV-1" source="k7VmaomQBbGbPofmeIs0-59" target="KzKYegzIuxJhYJ5iNqQt-17" edge="1">
          <mxGeometry width="50" height="50" relative="1" as="geometry">
            <mxPoint x="1110" y="595" as="sourcePoint" />
            <mxPoint x="1160" y="545" as="targetPoint" />
          </mxGeometry>
        </mxCell>
        <mxCell id="KzKYegzIuxJhYJ5iNqQt-19" value="&lt;font style=&quot;font-size: 16px;&quot;&gt;user_name&lt;/font&gt;" style="ellipse;whiteSpace=wrap;html=1;strokeWidth=2;" parent="WIyWlLk6GJQsqaUBKTNV-1" vertex="1">
          <mxGeometry x="1340" y="440" width="100" height="52" as="geometry" />
        </mxCell>
        <mxCell id="KzKYegzIuxJhYJ5iNqQt-20" value="" style="endArrow=none;html=1;rounded=0;entryX=0;entryY=1;entryDx=0;entryDy=0;exitX=0.986;exitY=0.375;exitDx=0;exitDy=0;exitPerimeter=0;strokeWidth=2;" parent="WIyWlLk6GJQsqaUBKTNV-1" source="k7VmaomQBbGbPofmeIs0-59" target="KzKYegzIuxJhYJ5iNqQt-19" edge="1">
          <mxGeometry width="50" height="50" relative="1" as="geometry">
            <mxPoint x="910" y="720" as="sourcePoint" />
            <mxPoint x="960" y="670" as="targetPoint" />
          </mxGeometry>
        </mxCell>
        <mxCell id="KzKYegzIuxJhYJ5iNqQt-21" value="&lt;span style=&quot;border-color: var(--border-color); text-align: left;&quot;&gt;&lt;font style=&quot;font-size: 16px;&quot;&gt;reservation_date&lt;/font&gt;&lt;/span&gt;" style="ellipse;whiteSpace=wrap;html=1;strokeWidth=2;" parent="WIyWlLk6GJQsqaUBKTNV-1" vertex="1">
          <mxGeometry x="1188" y="1020" width="142" height="42" as="geometry" />
        </mxCell>
        <mxCell id="KzKYegzIuxJhYJ5iNqQt-22" value="" style="endArrow=none;html=1;rounded=0;entryX=0;entryY=0.5;entryDx=0;entryDy=0;exitX=1;exitY=0.75;exitDx=0;exitDy=0;strokeWidth=2;" parent="WIyWlLk6GJQsqaUBKTNV-1" source="k7VmaomQBbGbPofmeIs0-8" target="KzKYegzIuxJhYJ5iNqQt-21" edge="1">
          <mxGeometry width="50" height="50" relative="1" as="geometry">
            <mxPoint x="910" y="820" as="sourcePoint" />
            <mxPoint x="960" y="770" as="targetPoint" />
          </mxGeometry>
        </mxCell>
        <mxCell id="KzKYegzIuxJhYJ5iNqQt-23" value="&lt;font style=&quot;font-size: 16px;&quot;&gt;roomtype_id&lt;/font&gt;" style="ellipse;whiteSpace=wrap;html=1;strokeWidth=2;" parent="WIyWlLk6GJQsqaUBKTNV-1" vertex="1">
          <mxGeometry x="725" y="1077" width="125" height="53" as="geometry" />
        </mxCell>
        <mxCell id="KzKYegzIuxJhYJ5iNqQt-24" value="" style="endArrow=none;html=1;rounded=0;exitX=0.75;exitY=1;exitDx=0;exitDy=0;entryX=0.5;entryY=0;entryDx=0;entryDy=0;strokeWidth=2;" parent="WIyWlLk6GJQsqaUBKTNV-1" source="YCPotoVFEUCIFsHt9eNJ-14" target="KzKYegzIuxJhYJ5iNqQt-23" edge="1">
          <mxGeometry width="50" height="50" relative="1" as="geometry">
            <mxPoint x="760" y="920" as="sourcePoint" />
            <mxPoint x="810" y="870" as="targetPoint" />
          </mxGeometry>
        </mxCell>
        <mxCell id="KzKYegzIuxJhYJ5iNqQt-25" value="&lt;font style=&quot;font-size: 16px;&quot;&gt;reservation_id&lt;/font&gt;" style="ellipse;whiteSpace=wrap;html=1;strokeWidth=2;" parent="WIyWlLk6GJQsqaUBKTNV-1" vertex="1">
          <mxGeometry x="810" y="987" width="115" height="58" as="geometry" />
        </mxCell>
        <mxCell id="KzKYegzIuxJhYJ5iNqQt-26" value="" style="endArrow=none;html=1;rounded=0;exitX=1;exitY=0.5;exitDx=0;exitDy=0;entryX=0;entryY=0.5;entryDx=0;entryDy=0;strokeWidth=2;" parent="WIyWlLk6GJQsqaUBKTNV-1" source="KzKYegzIuxJhYJ5iNqQt-25" target="k7VmaomQBbGbPofmeIs0-8" edge="1">
          <mxGeometry width="50" height="50" relative="1" as="geometry">
            <mxPoint x="920" y="982" as="sourcePoint" />
            <mxPoint x="970" y="932" as="targetPoint" />
          </mxGeometry>
        </mxCell>
      </root>
    </mxGraphModel>
  </diagram>
</mxfile>
